<?xml version="1.0" encoding="UTF-8"?>
<svg xmlns="http://www.w3.org/2000/svg" xmlns:xlink="http://www.w3.org/1999/xlink" width="100px" height="99px" viewBox="0 0 99 99" version="1.1">
<g id="surface1">
<path style=" stroke:none;fill-rule:nonzero;fill:rgb(21.960784%,21.960784%,21.960784%);fill-opacity:1;" d="M 51.253906 0.0117188 C 51.667969 0.105469 52.089844 0.0703125 52.503906 0.0976562 C 54.160156 0.199219 55.804688 0.386719 57.4375 0.648438 C 59.738281 1.015625 62.007812 1.550781 64.230469 2.25 C 80.902344 7.480469 93.601562 21.128906 97.660156 38.179688 C 98.191406 40.414062 98.566406 42.6875 98.78125 44.976562 C 98.921875 46.492188 99.035156 48.015625 98.992188 49.539062 C 98.941406 51.332031 98.855469 53.125 98.65625 54.914062 C 97.460938 65.609375 92.824219 75.621094 85.449219 83.429688 C 80.730469 88.457031 75.015625 92.4375 68.675781 95.113281 C 65.652344 96.398438 62.503906 97.371094 59.285156 98.015625 C 57.097656 98.457031 54.878906 98.75 52.652344 98.886719 C 50.410156 99.03125 48.164062 99.023438 45.925781 98.863281 C 35.382812 98.109375 25.363281 93.976562 17.339844 87.070312 C 10.777344 81.40625 5.996094 74.503906 2.996094 66.355469 C 1.855469 63.253906 1.039062 60.042969 0.558594 56.773438 C 0.0898438 53.589844 -0.109375 50.386719 0.0585938 47.167969 C 1.203125 24.703125 17.230469 5.8125 39.144531 1.105469 C 41.417969 0.621094 43.722656 0.292969 46.039062 0.128906 C 46.566406 0.0898438 47.09375 0.078125 47.621094 0.0546875 C 47.695312 0.046875 47.765625 0.0351562 47.839844 0.0195312 Z M 51.253906 0.0117188 "/>
<path style=" stroke:none;fill-rule:nonzero;fill:rgb(93.333334%,24.705882%,24.313726%);fill-opacity:1;" d="M 79.703125 44.945312 C 74.339844 44.945312 68.976562 44.945312 63.613281 44.945312 C 63.4375 44.945312 63.34375 44.921875 63.265625 44.730469 C 61.363281 40.089844 58 37.109375 53.097656 36.054688 C 48.917969 35.15625 45.089844 36.105469 41.695312 38.71875 C 39.667969 40.28125 38.207031 42.285156 37.289062 44.683594 C 37.214844 44.878906 37.125 44.949219 36.902344 44.949219 C 25.703125 44.941406 14.503906 44.941406 3.304688 44.941406 C 2.929688 44.941406 2.929688 44.941406 2.96875 44.574219 C 3.160156 42.660156 3.480469 40.757812 3.929688 38.886719 C 8.167969 20.90625 22.507812 7.082031 40.582031 3.550781 C 42.011719 3.269531 43.453125 3.070312 44.902344 2.933594 C 46.601562 2.761719 48.308594 2.6875 50.015625 2.707031 C 51.695312 2.730469 53.375 2.839844 55.046875 3.035156 C 58.371094 3.421875 61.644531 4.171875 64.808594 5.277344 C 78 9.871094 88.46875 20.128906 93.367188 33.253906 C 94.410156 36.035156 95.179688 38.914062 95.667969 41.84375 C 95.824219 42.789062 95.925781 43.742188 96.066406 44.6875 C 96.105469 44.9375 95.992188 44.949219 95.796875 44.949219 C 90.433594 44.945312 85.070312 44.945312 79.703125 44.945312 Z M 79.703125 44.945312 "/>
<path style=" stroke:none;fill-rule:nonzero;fill:rgb(99.215686%,98.823529%,98.823529%);fill-opacity:1;" d="M 20.417969 55.632812 C 26.085938 55.632812 31.757812 55.632812 37.425781 55.628906 C 37.609375 55.628906 37.699219 55.679688 37.777344 55.84375 C 40.136719 60.691406 45.070312 63.742188 50.445312 63.683594 C 53.320312 63.621094 55.949219 62.78125 58.300781 61.105469 C 60.21875 59.75 61.757812 57.929688 62.777344 55.8125 C 62.820312 55.691406 62.941406 55.613281 63.070312 55.628906 C 73.929688 55.632812 84.789062 55.632812 95.652344 55.628906 C 95.953125 55.628906 95.847656 55.765625 95.828125 55.929688 C 95.710938 56.9375 95.53125 57.9375 95.320312 58.933594 C 94.875 61.050781 94.289062 63.140625 93.558594 65.179688 C 91.988281 69.578125 89.773438 73.714844 86.984375 77.453125 C 85.351562 79.648438 83.53125 81.695312 81.539062 83.566406 C 77.882812 87.019531 73.699219 89.855469 69.148438 91.972656 C 66.222656 93.335938 63.164062 94.386719 60.019531 95.109375 C 58.851562 95.378906 57.675781 95.613281 56.492188 95.792969 C 55.601562 95.925781 54.707031 96.015625 53.808594 96.105469 C 51.960938 96.296875 50.105469 96.320312 48.253906 96.292969 C 47.242188 96.277344 46.234375 96.203125 45.222656 96.109375 C 44.421875 96.035156 43.621094 95.957031 42.828125 95.84375 C 34.503906 94.644531 26.660156 91.210938 20.121094 85.90625 C 18.140625 84.304688 16.292969 82.546875 14.597656 80.648438 C 10.402344 75.914062 7.25 70.5625 5.199219 64.5625 C 4.507812 62.554688 3.957031 60.5 3.554688 58.410156 C 3.398438 57.574219 3.273438 56.730469 3.121094 55.894531 C 3.082031 55.699219 3.132812 55.632812 3.355469 55.632812 C 9.042969 55.636719 14.730469 55.636719 20.417969 55.632812 Z M 20.417969 55.632812 "/>
<path style=" stroke:none;fill-rule:nonzero;fill:rgb(100%,100%,100%);fill-opacity:1;" d="M 50.246094 38.386719 C 56.554688 38.414062 61.582031 43.492188 61.546875 49.785156 C 61.480469 56.007812 56.421875 61.011719 50.222656 60.988281 C 44.023438 60.960938 39.003906 55.921875 38.984375 49.699219 C 38.996094 43.378906 44.066406 38.429688 50.246094 38.386719 Z M 50.246094 38.386719 "/>
</g>
</svg>
