<?xml version="1.0" encoding="utf-8"?>
<!-- Generator: Adobe Illustrator 25.2.1, SVG Export Plug-In . SVG Version: 6.00 Build 0)  -->
<svg version="1.1" id="mc-logo" xmlns="http://www.w3.org/2000/svg" xmlns:xlink="http://www.w3.org/1999/xlink" x="0px" y="0px"
	 viewBox="0 0 250 32" style="enable-background:new 0 0 250 32;" xml:space="preserve">
<style type="text/css">
	.st0{fill-rule:evenodd;clip-rule:evenodd;fill:#020303;}
	.st1{filter:url(#Adobe_OpacityMaskFilter);}
	.st2{fill-rule:evenodd;clip-rule:evenodd;fill:#FFFFFF;}
	.st3{mask:url(#mask-4_1_);fill-rule:evenodd;clip-rule:evenodd;fill:#020303;}
	.st4{filter:url(#Adobe_OpacityMaskFilter_1_);}
	.st5{mask:url(#mask-2_1_);fill-rule:evenodd;clip-rule:evenodd;fill:#020303;}
</style>
<polygon id="E_1_" class="st0" points="250,9.2 250,6.5 239.6,6.5 239.6,22.9 250,22.9 250,20.1 242.5,20.1 242.5,16.1 249.6,16.1 
	249.6,13.4 242.5,13.4 242.5,9.2 "/>
<polygon id="E" class="st0" points="222.7,22.9 233,22.9 233,20.1 225.6,20.1 225.6,16.1 232.6,16.1 232.6,13.4 225.6,13.4 
	225.6,9.2 233,9.2 233,6.5 222.7,6.5 "/>
<polygon id="F_1_" class="st0" points="206.3,22.9 209.2,22.9 209.2,16.1 216.3,16.1 216.3,13.4 209.2,13.4 209.2,9.2 216.6,9.2 
	216.6,6.5 206.3,6.5 "/>
<polygon id="F" class="st0" points="200.3,9.2 200.3,6.5 189.9,6.5 189.9,22.9 192.8,22.9 192.8,16.1 199.9,16.1 199.9,13.4 
	192.8,13.4 192.8,9.2 "/>
<path id="O" class="st0" d="M173.9,10.5c0,0,0-0.1,0-0.1c0.3-0.5,0.9-1,1.2-1.2c0,0,0.1,0,0.1,0h4c0,0,0.1,0,0.1,0
	c0.3,0.2,0.9,0.7,1.2,1.2c0,0,0,0.1,0,0.1V19c0,0,0,0.1,0,0.1c-0.3,0.5-0.9,1-1.2,1.2c-0.1,0-0.1,0-0.1,0h-4c0,0-0.1,0-0.1,0
	c-0.3-0.2-0.9-0.7-1.2-1.2c0,0,0-0.1,0-0.1V10.5z M173.4,22.5c0.4,0.3,1.1,0.5,1.7,0.5h4.2c0.6,0,1.3-0.2,1.7-0.5
	c0.6-0.3,1.6-1.5,2-2c0.3-0.5,0.4-1,0.4-1.6v-8.6c0-0.5-0.1-1.1-0.4-1.6c-0.4-0.5-1.4-1.6-2-2c-0.4-0.3-1.1-0.5-1.7-0.5h-4.2
	c-0.6,0-1.3,0.2-1.7,0.5c-0.6,0.3-1.7,1.5-2,2c-0.3,0.5-0.4,1.1-0.4,1.6V19c0,0.5,0.1,1.1,0.4,1.6C171.8,21,172.9,22.2,173.4,22.5
	L173.4,22.5z"/>
<path id="C_1_" class="st0" d="M155.9,10.3c0.3-0.4,0.9-1,1.2-1.2c0,0,0.1,0,0.1,0h3.3c0,0,0.1,0,0.1,0c0.4,0.2,1.2,1.3,1.2,1.3
	l2.8-0.8c-0.2-0.4-0.4-0.7-0.6-1c-0.7-0.9-2-2.3-3.5-2.3h-3.4c-0.6,0-1.3,0.3-1.7,0.5c-0.6,0.3-1.7,1.5-2,2c-0.3,0.5-0.4,1-0.4,1.5
	V19c0,0.5,0.1,1.1,0.4,1.6c0.3,0.5,1.4,1.6,2,2c0.4,0.3,1.1,0.5,1.7,0.5h3.4c1.6,0,2.8-1.3,3.5-2.3c0.2-0.3,0.4-0.5,0.6-1l-2.8-0.7
	c0,0-0.7,1-1.2,1.3c-0.1,0-0.1,0-0.1,0h-3.1c0,0-0.2,0-0.2,0c-0.4-0.2-1.3-0.9-1.3-1.3v-8.4C155.9,10.6,155.9,10.4,155.9,10.3"/>
<defs>
	<filter id="Adobe_OpacityMaskFilter" filterUnits="userSpaceOnUse" x="124.9" y="0" width="12" height="32">
		<feColorMatrix  type="matrix" values="1 0 0 0 0  0 1 0 0 0  0 0 1 0 0  0 0 0 1 0"/>
	</filter>
</defs>
<mask maskUnits="userSpaceOnUse" x="124.9" y="0" width="12" height="32" id="mask-4_1_">
	<g class="st1">
		<polygon id="path-3_1_" class="st2" points="124.9,0 136.9,0 136.9,32 124.9,32 		"/>
	</g>
</mask>
<polygon id="bolt" class="st3" points="129.2,4 124.9,18 129.2,18 124.9,32 136.9,14 132.6,14 136.9,0 "/>
<path id="P" class="st0" d="M100.5,8.7h5.1h0.1c0.3,0,0.7,0.6,0.9,0.9c0,0.1,0,0.2,0,0.2v2.5c0,0.1,0,0.1,0,0.1
	c-0.2,0.4-0.8,0.9-1.1,0.9h-5.1V8.7z M105.5,16.2c0.7,0,1.4-0.2,2-0.6c0.4-0.3,1.3-1.1,1.5-1.5c0.3-0.5,0.5-1.1,0.5-1.7V9.7
	c0-0.6-0.2-1.2-0.5-1.7c-0.3-0.4-1.1-1.3-1.5-1.6c-0.6-0.4-1.4-0.6-2-0.6h-8.1v17.1h3v-6.8H105.5z"/>
<path id="A_1_" class="st0" d="M82,16.4l2.3-6.8l2.3,6.8H82z M86.1,5.8h-3.5l-6,17.1h3.2l1.3-3.6h6.5l1.3,3.6h3.2L86.1,5.8z"/>
<path id="C" class="st0" d="M62.9,9.8c0.3-0.5,0.9-1.1,1.3-1.3c0,0,0.1,0,0.1,0h3.4c0,0,0.1,0,0.1,0c0.4,0.3,1.3,1.3,1.3,1.3L72,9.1
	c-0.3-0.5-0.4-0.7-0.6-1c-0.7-1-2-2.4-3.6-2.4h-3.6c-0.6,0-1.3,0.3-1.8,0.5c-0.6,0.3-1.8,1.6-2.1,2.1c-0.3,0.5-0.5,1.1-0.5,1.6v9
	c0,0.5,0.1,1.1,0.5,1.6c0.3,0.5,1.5,1.7,2.1,2c0.5,0.3,1.2,0.5,1.8,0.5h3.6c1.6,0,2.9-1.4,3.6-2.4c0.2-0.3,0.4-0.6,0.6-1.1l-2.9-0.8
	c0,0-0.7,1.1-1.3,1.3c-0.1,0-0.1,0-0.1,0h-3.3c0,0-0.2,0-0.2,0c-0.4-0.2-1.3-1-1.3-1.3v-8.7C62.8,10.1,62.8,9.9,62.9,9.8"/>
<path id="D" class="st0" d="M49.9,18.7c0,0.3-0.9,1.1-1.3,1.3c0,0-0.2,0-0.2,0h-4.7V8.7h4.6c0.1,0,0.2,0,0.3,0
	c0.3,0.2,0.9,0.7,1.3,1.3c0,0.1,0,0.1,0,0.1V18.7z M50.4,6.3c-0.5-0.3-1.2-0.5-1.7-0.5h-7.9v17.1h7.9c0.6,0,1.3-0.3,1.7-0.5
	c0.6-0.3,1.8-1.5,2.1-2c0.3-0.5,0.4-1.1,0.4-1.6V10c0-0.5-0.1-1.1-0.5-1.6C52.1,7.9,51,6.6,50.4,6.3L50.4,6.3z"/>
<path id="A" class="st0" d="M25.3,16.4l2.3-6.8l2.3,6.8H25.3z M25.9,5.8l-6,17.1h3.2l1.3-3.6h6.5l1.3,3.6h3.2l-6-17.1H25.9z"/>
<defs>
	<filter id="Adobe_OpacityMaskFilter_1_" filterUnits="userSpaceOnUse" x="0" y="5.8" width="14.8" height="17.1">
		<feColorMatrix  type="matrix" values="1 0 0 0 0  0 1 0 0 0  0 0 1 0 0  0 0 0 1 0"/>
	</filter>
</defs>
<mask maskUnits="userSpaceOnUse" x="0" y="5.8" width="14.8" height="17.1" id="mask-2_1_">
	<g class="st4">
		<polygon id="path-1_1_" class="st2" points="0,5.8 14.8,5.8 14.8,22.9 0,22.9 		"/>
	</g>
</mask>
<polygon id="M" class="st5" points="14.8,22.9 14.8,5.8 11.4,5.8 7.5,14.2 3.4,5.8 0,5.8 0,22.9 3,22.9 3,11.2 6.4,18.7 8.4,18.7 
	11.8,11.2 11.8,22.9 "/>
</svg>
